# xmcd CD database file
#
# Track frame offsets:
#	150
#	13191
#	24682
#	41811
#	58060
#	71418
#	86678
#	98286
#	106923
#	120502
#	134929
#	147002
#	157148
#	172654
#	185859
#	198119
#	216428
#	224921
#
# Disc length: 3184 seconds
#
# Revision: 0
# Processed by: cddbd v1.5.2PL0 Copyright (c) Steve Scherf et al.
# Submitted via: CDex 1.70beta2
#
DISCID=110c6e12
DTITLE=Various Artist - Trampske evergreeny
DYEAR=2002
DGENRE=Country
TTITLE0=Slamu v botach nosim
TTITLE1=Jesse James
TTITLE2=Niagara
TTITLE3=Hrac
TTITLE4=Kdyz clovek prichazi do let
TTITLE5=Cabaleri, zapa hori
TTITLE6=Kdyz prijdou chvile
TTITLE7=Hardy
TTITLE8=Rikatado
TTITLE9=Mexiko
TTITLE10=Sesla se stara parta
TTITLE11=Dajana
TTITLE12=Chvile, kdy jsem byl
TTITLE13=Tennessee Waltz
TTITLE14=Sazka
TTITLE15=Zatoka
TTITLE16=Tuhle rundu platim ja
TTITLE17=Az prijde ten den
EXTD=YEAR: 2002
EXTT0=
EXTT1=
EXTT2=
EXTT3=
EXTT4=
EXTT5=
EXTT6=
EXTT7=
EXTT8=
EXTT9=
EXTT10=
EXTT11=
EXTT12=
EXTT13=
EXTT14=
EXTT15=
EXTT16=
EXTT17=
PLAYORDER=
